HIERARCHY
ROOT Hips
{
    OFFSET   0.000000   0.000000   0.000000
    CHANNELS 6 Xposition Yposition Zposition Zrotation Xrotation Yrotation
    JOINT Chest
    {
        OFFSET   0.000000   8.007230   0.000000
        CHANNELS 3 Zrotation Xrotation Yrotation
        JOINT Chest2
        {
            OFFSET   0.000000  22.077100   0.000000
            CHANNELS 3 Zrotation Xrotation Yrotation
            JOINT Neck
            {
                OFFSET   0.000000  23.254700   0.000000
                CHANNELS 3 Zrotation Xrotation Yrotation
                JOINT Head
                {
                    OFFSET   0.000010  14.370000   1.956610
                    CHANNELS 3 Zrotation Xrotation Yrotation
                    End Site
                    {
                        OFFSET   0.000000  19.566000   0.000000
                    }
                }
            }
            JOINT LeftCollar
            {
                OFFSET   3.911900  19.017000  -0.467063
                CHANNELS 3 Zrotation Xrotation Yrotation
                JOINT LeftShoulder
                {
                    OFFSET  10.383700   0.000000   0.000000
                    CHANNELS 3 Zrotation Xrotation Yrotation
                    JOINT LeftElbow
                    {
                        OFFSET  26.662100   0.001671   0.000522
                        CHANNELS 3 Zrotation Xrotation Yrotation
                        JOINT LeftWrist
                        {
                            OFFSET  28.869000   0.000037  -0.000114
                            CHANNELS 3 Zrotation Xrotation Yrotation
                            JOINT LeftFinger0
                            {
                                OFFSET   2.044650  -2.323450   3.252850
                                CHANNELS 3 Zrotation Xrotation Yrotation
                                JOINT LeftFinger01
                                {
                                    OFFSET   3.088140   0.000000   0.000000
                                    CHANNELS 3 Zrotation Xrotation Yrotation
                                    JOINT LeftFinger02
                                    {
                                        OFFSET   2.639460   0.000000   0.000000
                                        CHANNELS 3 Zrotation Xrotation Yrotation
                                        End Site
                                        {
                                            OFFSET   2.582190   0.000000   0.000000
                                        }
                                    }
                                }
                            }
                            JOINT LeftFinger1
                            {
                                OFFSET   8.364480   0.000000   3.252850
                                CHANNELS 3 Zrotation Xrotation Yrotation
                                JOINT LeftFinger11
                                {
                                    OFFSET   4.646930   0.000000   0.000000
                                    CHANNELS 3 Zrotation Xrotation Yrotation
                                    JOINT LeftFinger12
                                    {
                                        OFFSET   2.323470   0.000000   0.000000
                                        CHANNELS 3 Zrotation Xrotation Yrotation
                                        End Site
                                        {
                                            OFFSET   2.273050   0.000000   0.000000
                                        }
                                    }
                                }
                            }
                            JOINT LeftFinger2
                            {
                                OFFSET   8.364490   0.000016   1.078090
                                CHANNELS 3 Zrotation Xrotation Yrotation
                                JOINT LeftFinger21
                                {
                                    OFFSET   5.111620   0.000000   0.000000
                                    CHANNELS 3 Zrotation Xrotation Yrotation
                                    JOINT LeftFinger22
                                    {
                                        OFFSET   2.788150   0.000013   0.000000
                                        CHANNELS 3 Zrotation Xrotation Yrotation
                                        End Site
                                        {
                                            OFFSET   2.727660   0.000000   0.000000
                                        }
                                    }
                                }
                            }
                            JOINT LeftFinger3
                            {
                                OFFSET   7.899780   0.000016  -1.078090
                                CHANNELS 3 Zrotation Xrotation Yrotation
                                JOINT LeftFinger31
                                {
                                    OFFSET   4.646930   0.000000   0.000000
                                    CHANNELS 3 Zrotation Xrotation Yrotation
                                    JOINT LeftFinger32
                                    {
                                        OFFSET   2.323470   0.000000   0.000000
                                        CHANNELS 3 Zrotation Xrotation Yrotation
                                        End Site
                                        {
                                            OFFSET   2.273050   0.000000   0.000000
                                        }
                                    }
                                }
                            }
                            JOINT LeftFinger4
                            {
                                OFFSET   7.435080   0.000000  -3.252850
                                CHANNELS 3 Zrotation Xrotation Yrotation
                                JOINT LeftFinger41
                                {
                                    OFFSET   3.717550   0.000000   0.000000
                                    CHANNELS 3 Zrotation Xrotation Yrotation
                                    JOINT LeftFinger42
                                    {
                                        OFFSET   1.858760   0.000000   0.000000
                                        CHANNELS 3 Zrotation Xrotation Yrotation
                                        End Site
                                        {
                                            OFFSET   1.818440   0.000000   0.000000
                                        }
                                    }
                                }
                            }
                        }
                    }
                }
            }
            JOINT RightCollar
            {
                OFFSET  -3.911900  19.017000  -0.467064
                CHANNELS 3 Zrotation Xrotation Yrotation
                JOINT RightShoulder
                {
                    OFFSET -10.383700   0.000000   0.000000
                    CHANNELS 3 Zrotation Xrotation Yrotation
                    JOINT RightElbow
                    {
                        OFFSET -26.662100   0.001633   0.000260
                        CHANNELS 3 Zrotation Xrotation Yrotation
                        JOINT RightWrist
                        {
                            OFFSET -28.869000  -0.000045  -0.000080
                            CHANNELS 3 Zrotation Xrotation Yrotation
                            JOINT RightFinger0
                            {
                                OFFSET  -2.044660  -2.323490   3.252850
                                CHANNELS 3 Zrotation Xrotation Yrotation
                                JOINT RightFinger01
                                {
                                    OFFSET  -3.088140   0.000000   0.000000
                                    CHANNELS 3 Zrotation Xrotation Yrotation
                                    JOINT RightFinger02
                                    {
                                        OFFSET  -2.639450   0.000000   0.000000
                                        CHANNELS 3 Zrotation Xrotation Yrotation
                                        End Site
                                        {
                                            OFFSET  -2.582190   0.000000   0.000000
                                        }
                                    }
                                }
                            }
                            JOINT RightFinger1
                            {
                                OFFSET  -8.364480   0.000000   3.252850
                                CHANNELS 3 Zrotation Xrotation Yrotation
                                JOINT RightFinger11
                                {
                                    OFFSET  -4.646920   0.000000   0.000000
                                    CHANNELS 3 Zrotation Xrotation Yrotation
                                    JOINT RightFinger12
                                    {
                                        OFFSET  -2.323470   0.000000   0.000000
                                        CHANNELS 3 Zrotation Xrotation Yrotation
                                        End Site
                                        {
                                            OFFSET  -2.273050   0.000000   0.000000
                                        }
                                    }
                                }
                            }
                            JOINT RightFinger2
                            {
                                OFFSET  -8.364480   0.000000   1.078090
                                CHANNELS 3 Zrotation Xrotation Yrotation
                                JOINT RightFinger21
                                {
                                    OFFSET  -5.111610   0.000000   0.000000
                                    CHANNELS 3 Zrotation Xrotation Yrotation
                                    JOINT RightFinger22
                                    {
                                        OFFSET  -2.788160   0.000000   0.000000
                                        CHANNELS 3 Zrotation Xrotation Yrotation
                                        End Site
                                        {
                                            OFFSET  -2.727660   0.000000   0.000000
                                        }
                                    }
                                }
                            }
                            JOINT RightFinger3
                            {
                                OFFSET  -7.899780   0.000000  -1.078090
                                CHANNELS 3 Zrotation Xrotation Yrotation
                                JOINT RightFinger31
                                {
                                    OFFSET  -4.646930   0.000000   0.000000
                                    CHANNELS 3 Zrotation Xrotation Yrotation
                                    JOINT RightFinger32
                                    {
                                        OFFSET  -2.323470   0.000000   0.000000
                                        CHANNELS 3 Zrotation Xrotation Yrotation
                                        End Site
                                        {
                                            OFFSET  -2.273050   0.000000   0.000000
                                        }
                                    }
                                }
                            }
                            JOINT RightFinger4
                            {
                                OFFSET  -7.435090   0.000000  -3.252850
                                CHANNELS 3 Zrotation Xrotation Yrotation
                                JOINT RightFinger41
                                {
                                    OFFSET  -3.717550   0.000000   0.000000
                                    CHANNELS 3 Zrotation Xrotation Yrotation
                                    JOINT RightFinger42
                                    {
                                        OFFSET  -1.858760   0.000000   0.000000
                                        CHANNELS 3 Zrotation Xrotation Yrotation
                                        End Site
                                        {
                                            OFFSET  -1.818440   0.000000   0.000000
                                        }
                                    }
                                }
                            }
                        }
                    }
                }
            }
        }
    }
    JOINT LeftHip
    {
        OFFSET   9.782990   0.000000   0.000000
        CHANNELS 3 Zrotation Xrotation Yrotation
        JOINT LeftKnee
        {
            OFFSET  -0.000063 -41.789100   0.001657
            CHANNELS 3 Zrotation Xrotation Yrotation
            JOINT LeftAnkle
            {
                OFFSET   0.000078 -41.133200  -0.000113
                CHANNELS 3 Zrotation Xrotation Yrotation
                JOINT LeftToe
                {
                    OFFSET   0.000000  -6.358970  14.674500
                    CHANNELS 3 Zrotation Xrotation Yrotation
                    End Site
                    {
                        OFFSET   0.000000   0.000000   3.913200
                    }
                }
            }
        }
    }
    JOINT RightHip
    {
        OFFSET  -9.782990   0.000000   0.000000
        CHANNELS 3 Zrotation Xrotation Yrotation
        JOINT RightKnee
        {
            OFFSET   0.000053 -41.789200   0.000277
            CHANNELS 3 Zrotation Xrotation Yrotation
            JOINT RightAnkle
            {
                OFFSET   0.000030 -41.133200  -0.000150
                CHANNELS 3 Zrotation Xrotation Yrotation
                JOINT RightToe
                {
                    OFFSET   0.000000  -6.358960  14.674500
                    CHANNELS 3 Zrotation Xrotation Yrotation
                    End Site
                    {
                        OFFSET   0.000000   0.000000   3.913200
                    }
                }
            }
        }
    }
}
MOTION
Frames: 5
Frame Time:   0.016667
  2.794640  89.353100  -0.035753  -9.542110  -9.260650 -19.883200  -1.902120   4.289480  -0.261344  -3.800610   8.584430  -0.381024   3.459880  -1.510210   0.084838   5.695210  -3.028940   7.040990   0.410459   4.932820  -2.225130 -74.426600  14.796300   0.130831  -0.358049  -3.547750 -17.821100  12.458100  -6.131130   2.674480  38.606800  30.093300 -56.633300 -31.227100   0.000000   0.000000 -10.613600   0.002823  -0.000000 -30.438400   4.470220  -7.554510 -25.145800   0.003093   0.001570 -17.602000  -0.002968   0.004806 -28.310200  -2.317510   4.294010 -35.089000   0.000184   0.000000 -23.369200  -0.005275   0.000000 -28.520500  -2.333470   4.285380 -37.521500  -0.005776  -0.001148 -24.989300  -0.004579  -0.000326 -29.506300  -2.406540   4.244970 -44.394400   0.000439  -0.001533 -29.566600   0.000945   0.000148  -0.239387  -6.633200  -2.144390   8.356350 -38.648700  51.568100 -32.008400 -18.664400  14.589400  -7.585280 -64.508000   7.042320 -47.813500  34.675100  71.855900  11.689700  -0.001261  -0.008193   0.844866  -0.000767  -0.003359  21.818100   6.267880  15.246100  18.537700   0.003064  -0.002651  12.976400  -0.000759  -0.003795  26.999400   5.719700  11.088400  29.365000   0.004407  -0.000308  19.557100  -0.000276  -0.001364  23.288600   4.306550   9.910620  23.550600   0.002826   0.000451  15.684700   0.007722  -0.000938  27.438300   1.636080   3.153980  41.222500   0.010866  -0.002414  27.454200   0.001752  -0.001507   2.262960  16.281700   5.680890   0.341889   0.113841  14.075200   2.009840  -6.172450   9.463680   0.000000   0.000000   0.000000   7.045950   8.157150   3.228940  -4.140420   6.157600  -0.825763   1.653000  -2.195880   8.998910  -0.000000   0.000000  -0.000000
  2.819250  89.352900  -0.008042  -9.459430  -9.371010 -19.595500  -1.900740   4.288910  -0.228961  -3.800290   8.583070  -0.315926   3.505970  -1.485460   0.084591   5.770790  -2.978370   7.171270   0.395980   4.927930  -2.213140 -74.423700  14.740600   0.160369  -0.343239  -3.480300 -17.720400  12.486700  -6.089830   2.664230  38.626100  30.183000 -56.866200 -31.243000   0.000000   0.000000 -10.621500   0.002787  -0.000000 -30.428300   4.446760  -7.519740 -25.134900   0.003288   0.001567 -17.594400  -0.002998   0.005095 -28.326900  -2.270850   4.204440 -35.220000   0.000173  -0.000000 -23.456500  -0.005275  -0.000000 -28.519700  -2.284970   4.196890 -37.460000  -0.005771  -0.001154 -24.948300  -0.004578  -0.000326 -29.492600  -2.355800   4.157880 -44.368400   0.000438  -0.001530 -29.549300   0.000946   0.000145  -0.059917  -6.338240  -2.100230   8.623020 -38.285700  51.328000 -32.358300 -18.956900  15.561100  -7.273160 -63.770000   7.475240 -47.669900  34.701200  72.048900  11.998200  -0.001181  -0.008459   0.999124  -0.000928  -0.003335  22.303900   6.479820  15.379700  18.964900   0.003062  -0.002673  13.275400  -0.000833  -0.003786  27.197900   5.718580  10.985300  30.394100   0.009844  -0.000424  20.242500  -0.000131  -0.001475  24.281400   4.327720   9.513200  24.433600   0.003526   0.000398  16.272800   0.007893  -0.001015  28.366200   1.502850   2.795210  42.599600   0.011196  -0.002431  28.371300   0.002175  -0.001959   2.195930  16.347000   5.624680   0.337903   0.045354  13.898200   2.041740  -6.098600   9.414300   0.000000   0.000000   0.000000   6.988020   8.282210   3.293230  -4.133490   6.125830  -0.894035   1.639070  -2.264270   8.622120   0.000000   0.000000  -0.000000
  2.835860  89.349900   0.010868  -9.381640  -9.485860 -19.313300  -1.894740   4.303540  -0.197005  -3.790730   8.611530  -0.251678   3.548540  -1.460900   0.084350   5.840930  -2.928320   7.284810   0.379655   4.888120  -2.202460 -74.444300  14.677700   0.163831  -0.322660  -3.437030 -17.601200  12.550800  -6.114870   2.715010  38.579300  30.066200 -56.669400 -31.281900   0.000000   0.000026 -10.641000   0.002759  -0.000000 -30.453000   4.458710  -7.532210 -25.156200   0.003483   0.001562 -17.609300  -0.003024   0.005388 -28.318600  -2.305280   4.269390 -35.156500   0.000164  -0.000000 -23.414200  -0.005274   0.000030 -28.518500  -2.320180   4.261380 -37.474100  -0.005772  -0.001161 -24.957700  -0.004580  -0.000330 -29.526200  -2.394850   4.220190 -44.422500   0.000439  -0.001530 -29.585300   0.000949   0.000149   0.161036  -6.086870  -2.063450   8.853690 -37.812300  51.074900 -32.807200 -19.294900  16.635600  -6.490390 -62.756200   8.316860 -47.936600  35.006900  72.427900  12.191300  -0.001201  -0.008713   1.095660  -0.001089  -0.003306  23.076200   6.766420  15.419400  19.628000   0.003059  -0.002696  13.739600  -0.000899  -0.003772  27.486500   5.686650  10.789200  32.176300   0.011428  -0.000554  21.429400   0.000014  -0.001595  25.381600   4.319140   9.053770  25.596000   0.004279   0.000341  17.046900   0.008033  -0.001097  29.476700   1.328070   2.369420  44.250300   0.010197  -0.002463  29.470600   0.002593  -0.002494   2.159110  16.384200   5.568490   0.318364   0.047678  13.686400   2.052740  -6.070250   9.395720  -0.000000   0.000000   0.000000   6.947660   8.393350   3.346850  -4.143880   6.127520  -0.952678   1.621980  -2.342050   8.256290   0.000000   0.000000   0.000000
  2.851550  89.345200   0.018311  -9.304730  -9.601510 -19.033700  -1.881970   4.331710  -0.161597  -3.767900   8.666400  -0.180752   3.570930  -1.436010   0.084090   5.876980  -2.877960   7.377240   0.355913   4.819230  -2.195430 -74.486900  14.638400   0.164303  -0.308623  -3.418990 -17.471800  12.599300  -6.139790   2.789140  38.463600  29.891400 -56.424000 -31.323500   0.000000   0.000065 -10.661800   0.002734  -0.000000 -30.488900   4.478590  -7.554570 -25.187400   0.003681   0.001558 -17.631200  -0.003045   0.005681 -28.307800  -2.355000   4.362820 -35.093000   0.000156   0.000000 -23.372000  -0.005273   0.000059 -28.516500  -2.370890   4.354240 -37.496500  -0.005772  -0.001166 -24.972600  -0.004582  -0.000334 -29.578700  -2.451390   4.309710 -44.506800   0.000441  -0.001529 -29.641500   0.000951   0.000152   0.400715  -5.885770  -2.035330   9.132430 -37.221300  50.783800 -33.319500 -19.637500  17.879300  -5.605110 -61.493600   9.218550 -48.219100  35.317700  72.834500  12.443000  -0.001335  -0.008956   1.221510  -0.001256  -0.003278  23.906700   7.024880  15.432400  20.338500   0.003057  -0.002718  14.237000  -0.000945  -0.003751  27.780800   5.557100  10.446100  33.979900   0.011654  -0.000688  22.630600   0.000159  -0.001719  26.358700   4.225840   8.490020  26.749700   0.005070   0.000274  17.815300   0.008102  -0.001185  30.523900   1.156080   1.968870  45.810300   0.008565  -0.002505  30.509600   0.002997  -0.003100   2.132220  16.419100   5.523780   0.296493   0.050006  13.468300   2.058670  -6.048210   9.371720  -0.000000   0.000000  -0.000000   6.917130   8.489430   3.391510  -4.170430   6.139970  -1.002950   1.610440  -2.427310   7.899460  -0.000000   0.000000   0.000000
  2.872320  89.340300   0.015960  -9.225900  -9.710360 -18.757000  -1.855870   4.363740  -0.117661  -3.718990   8.729010  -0.093492   3.565790  -1.412610   0.083914   5.867630  -2.831240   7.445030   0.318671   4.741170  -2.190660 -74.534100  14.676800   0.118255  -0.303381  -3.464040 -17.333000  12.595400  -6.109610   2.831700  38.380300  29.813700 -56.373500 -31.350200   0.000000   0.000094 -10.675200   0.002706  -0.000000 -30.509600   4.494940  -7.575790 -25.205600   0.003883   0.001560 -17.643900  -0.003063   0.005969 -28.307100  -2.381770   4.411810 -35.107800   0.000148   0.000000 -23.381800  -0.005272   0.000030 -28.515200  -2.397740   4.403170 -37.515300  -0.005772  -0.001165 -24.985200  -0.004580  -0.000330 -29.621400  -2.482370   4.356160 -44.573700   0.000439  -0.001534 -29.686000   0.000952   0.000152   0.628251  -5.771350  -2.028080   9.531570 -36.500500  50.460100 -33.842100 -19.957600  19.360600  -4.954270 -59.881300   9.904890 -48.167300  35.417900  73.117700  12.960800  -0.001530  -0.009183   1.480400  -0.001437  -0.003257  24.657800   7.133590  15.187200  20.954200   0.003057  -0.002734  14.668000  -0.000961  -0.003716  27.988600   5.264830   9.820690  34.987600   0.008387  -0.000753  23.301800   0.000305  -0.001782  26.854500   3.937140   7.729980  27.490200   0.005476   0.000232  18.308500   0.007975  -0.001232  31.145300   1.048080   1.730380  46.738600   0.007031  -0.002531  31.127900   0.003378  -0.003765   2.105690  16.465700   5.509080   0.270860   0.024234  13.265800   2.064890  -6.010590   9.306330  -0.000000   0.000000   0.000000   6.891410   8.561210   3.420750  -4.200290   6.184690  -1.042520   1.614030  -2.522160   7.559920   0.000000   0.000000   0.000000
